<svg width="408" height="129" xmlns="http://www.w3.org/2000/svg"><g fill="#000"><path d="M54.7 75.2c0 4-.7 7.3-2.2 10.3-1.5 3-3.5 5.6-6 7.7-2.4 2-5.3 3.7-8.7 4.8-3.4 1-7 1.6-10.6 1.6-5.6 0-10.7-1-15.4-3-4.7-2-8.5-4.8-11.6-8.2l2.2-2c3.2 3.6 7 6.2 11.3 8C18 96 22.5 97 27 97c3.4 0 6.6-.5 9.6-1.5s5.6-2.4 8-4.2c2.2-1.8 4-4 5.3-6.8 1.3-2.7 2-5.8 2-9.3 0-3.5-.8-6.4-2.2-8.8-1.5-2.4-3.4-4.4-5.7-6-2.2-1.8-4.8-3.3-7.8-4.4-3-1.2-6-2.2-8.8-3.2-3.8-1.2-7.2-2.4-10.4-3.7-3-1.3-5.8-3-8-4.8-2.3-2-4-4.2-5.3-7-1.2-2.6-1.8-6-1.8-9.7 0-3.8.6-7 2-10 1.6-3 3.6-5.5 6.2-7.5s5.5-3.5 9-4.6c3.3-1 6.8-1.6 10.6-1.6 4.6 0 9 1 13 2.6 4.2 1.8 7.6 4.3 10.3 7.5l-2 1.8c-2.5-3-5.5-5.3-9.2-7-3.8-1.6-7.8-2.4-12-2.4-3.2 0-6.2.4-9.2 1.3-3 .8-5.6 2-8 4-2.4 1.6-4.3 3.8-5.7 6.5-1.6 2.6-2.3 5.7-2.3 9.3 0 3.5.6 6.5 2 9 1.2 2.3 3 4.4 5 6 2.2 1.8 4.6 3.2 7.3 4.3 2.7 1 5.4 2.2 8.2 3L38 54c3.3 1.3 6.2 3 8.7 4.8 2.6 2 4.5 4.2 6 6.8 1.3 2.7 2 6 2 9.8zM70 53.6c1-2.7 2.2-5.2 3.7-7.3 1.6-2 3.4-4 5.5-5.4 2-1.6 4.2-2.8 6.6-3.5 2.4-.8 5-1.2 7.5-1.2 4 0 7.5.8 10.2 2.2 2.7 1.5 5 3.4 6.5 5.8 1.6 2.4 2.8 5 3.5 8 .7 3 1 6 1 9V97h-2.8V61.7c0-2.4-.3-5-.8-7.7-.6-2.7-1.6-5.2-3-7.4-1.4-2.3-3.3-4-5.7-5.6-2.3-1.5-5.4-2.2-9-2.2-3.3 0-6.3.6-9.2 2-2.8 1.3-5.2 3.2-7.3 5.6-2 2.5-3.8 5.5-5 9-1.2 3.6-2 7.6-2 12.2V97H67V.2h2.8v53.4h.3zm116.3 13.8c0 4.6-.8 9-2.2 12.7-1.4 4-3.5 7.3-6.3 10-2.7 2.8-6 5-9.8 6.5-4 1.5-8 2.3-12.6 2.3-4.5 0-8.6-.8-12.4-2.3-3.7-1.5-7-3.7-9.7-6.5-2.7-2.7-4.8-6-6.3-10-1.5-3.7-2.3-8-2.3-12.6s.8-8.8 2.3-12.6c1.5-3.8 3.6-7 6.3-9.8 2.7-2.7 6-4.8 9.7-6.4 3.8-1.5 8-2.3 12.4-2.3 4.6 0 8.7.8 12.5 2.3 3.7 1.6 7 3.7 9.7 6.4 2.8 2.8 5 6 6.4 9.8 1.5 3.8 2.3 8 2.3 12.6zm-2.8 0c0-4-.7-7.6-2-11-1.2-3.6-3-6.7-5.5-9.3-2.4-2.5-5.4-4.5-8.8-6-3.5-1.5-7.4-2.2-11.8-2.2-4.3 0-8.2.7-11.6 2.2-3.4 1.5-6.3 3.5-8.8 6-2.4 2.7-4.3 5.8-5.5 9.3-1.3 3.5-2 7.2-2 11 0 4 .7 8 2 11.4 1.2 3.5 3 6.5 5.5 9 2.5 2.8 5.4 4.8 8.8 6.4 3.4 1.6 7.3 2.4 11.6 2.4 4.4 0 8.3-.8 11.8-2.3 3.4-1.5 6.4-3.5 8.8-6.2 2.4-2.6 4.3-5.6 5.6-9 1.2-3.6 2-7.4 2-11.4zm94 13.7h-.5c-1 3-2.6 5.6-4.5 7.7-1.8 2.2-4 4-6.2 5.5-2.3 1.5-4.8 2.7-7.5 3.4-2.7.8-5.5 1.2-8.3 1.2-4.2 0-8.2-.8-11.8-2.4-3.6-1.6-6.8-3.7-9.4-6.5-2.6-3-4.6-6.2-6-10-1.5-3.8-2.2-8-2.2-12.3 0-4.4.8-8.6 2.3-12.4 1.4-4 3.4-7.2 6-10s5.8-5 9.4-6.6c3.6-1.6 7.6-2.4 11.8-2.4 5.7 0 10.8 1.5 15.6 4.5 4.8 3 8.5 7.4 11 13.3h.4V38h2.8v55.7c0 4.7-.5 9-1.5 13.4s-2.6 8-4.8 11.4c-2.4 3.2-5.4 5.8-9 7.7-3.8 2-8.4 3-13.8 3-5.6 0-10.5-1-15-3-4.2-1.8-8-4.5-11-8l2-2c3 3.7 6.8 6.4 11 8 4 1.7 8.4 2.6 13 2.6 5 0 9.3-1 12.8-2.8 3.4-2 6-4.4 8-7.5 2-3 3.4-6.6 4.2-10.5.8-4 1.2-8 1.2-12.4V81zm-53.6-13.3c0 3.8.5 7.5 1.8 11 1.2 3.5 3 6.6 5.3 9.2 2.4 2.6 5.2 4.6 8.4 6.2 3.3 1.5 7 2.3 11 2.3s7.7-.8 11-2.3c3.2-1.6 6-3.6 8.4-6.3 2.4-2.7 4.3-5.8 5.7-9.3 1.3-3.5 2-7.2 2-11 0-4-.7-7.8-2-11.3-1.4-3.5-3.3-6.5-5.7-9-2.3-2.7-5.2-4.8-8.5-6.3-3.2-1.5-7-2.2-10.8-2.2-4 0-7.8.7-11 2.3-3.3 1.7-6 3.8-8.4 6.5-2.2 2.6-4 5.7-5.2 9.2-1.3 3.5-2 7-2 11zm115.8 13.8c-1 2.7-2 5.2-3.7 7.4-1.5 2-3.3 4-5.4 5.3-2 1.5-4.2 2.6-6.6 3.3-2.4.8-5 1.2-7.4 1.2-4 0-7.6-.7-10.3-2.2-2.7-1.4-5-3.4-6.5-5.7-1.6-2.5-2.8-5.2-3.5-8.2-.7-3-1-6-1-9V38h2.8v35.4c0 2.5.4 5 1 7.8.4 2.7 1.4 5 2.8 7.4 1.4 2.2 3.3 4 5.6 5.5 2.3 1.6 5.4 2.4 9.2 2.4 3.2 0 6.2-.7 9-2 3-1.3 5.4-3.2 7.5-5.7 2.2-2.5 4-5.5 5-9 1.4-3.6 2-7.6 2-12V38h2.8v47.6c0 1.4 0 2.8.2 4.2 0 1.4 0 2.7.2 4 0 1.3 0 2.3.2 3.2h-2.8c0-1 0-2-.2-3.2v-4.2l-.2-4.3v-3.8h-.4zm23-28c1-2.6 2.2-5 3.8-7.2 1.6-2 3.4-4 5.5-5.4 2-1.6 4.4-2.8 6.7-3.5 2.4-.8 5-1.2 7.5-1.2 4 0 7.5.8 10.2 2.2 2.7 1.5 5 3.4 6.5 5.8 1.6 2.4 2.7 5 3.4 8 .7 3 1 6 1 9V97h-2.8V61.7c0-2.4-.3-5-.8-7.7s-1.4-5.2-2.8-7.4c-1.5-2.3-3.4-4-5.7-5.6-2.4-1.5-5.5-2.2-9-2.2-3.4 0-6.4.6-9.3 2-2.8 1.3-5.3 3.2-7.4 5.6-2 2.5-3.8 5.5-5 9-1.2 3.6-2 7.6-2 12.2V97H360V53v-3.5l-.3-4c0-1.6 0-3-.2-4.2 0-1.3 0-2.3-.2-3.2h2.8c.2 1 .3 2 .3 3.3v4.2l.3 4.3v3.8h.3zM204.8 124l-2.2-21s-.4-2.8.5-4.4c0 0 .2-1.5-.5-2.4 0 0-1.8-3.4-2.8-6.4L199 91l-.4-.3c.4-.4.6-1.5.7-2 0-.4 0-.6-.2-1 0 .2 0 .3-.3.3-.5 0-.8-.3-.8-.8s.2-.8.6-1v-2s-1-2-.5-3l.6-34V4.5h-.3c-.3 0-.5-.2-.5-.5 0-.2.2-.4.5-.4h.3v-.4c0-.5.4-.6 1-.6s1 0 1 .6v45.3c.8 0 2.6.6 3 3.5 0 0 1 14.7.6 20.2h-1v12c.2-.3.3-1 .7-1.3.2-.3.5-.4 1-.3 0 0 1.4 0 1.8 2 0 0 .2.5.2 1.2 0 1.6-.6 2.6-1.7 2.7h-.5V90h-.2l-.2.2c.7 2 2 4 4 5l1.7.6s.8 1.6-.8 4.7l2 5.5s8 17 7.8 18.6c0 0 0 .7-3.7 1.2l-8.7.8s-1.6.6-1.8-2.3zm-.7-35c0-.4.3-.6.4-.7.3-.2.7 0 1 0 1-.2 1-1.4 1-2.4v-1.2c-.4-1.6-1.5-1.6-1.5-1.6h-.7c-.4.5-.5 1-.5 1.3 0 .2 0 .2-.3.2h-.2c0 .4 0 1 .2 1.6.7.4 1.7.7 2.3.4l.3.4s-.8 1-2.4.4l.6 2V89z"/><path d="M188 39h30" stroke="#000" stroke-width="2"/></g></svg>
